<svg xmlns="http://www.w3.org/2000/svg" xmlns:xlink="http://www.w3.org/1999/xlink" width="500" zoomAndPan="magnify" viewBox="0 0 375 374.999991" height="500" preserveAspectRatio="xMidYMid meet" version="1.0"><defs><g/><clipPath id="28975f27d4"><path d="M 290 161 L 341.808594 161 L 341.808594 224.390625 L 290 224.390625 Z M 290 161 " clip-rule="nonzero"/></clipPath><clipPath id="c778c0c504"><path d="M 177.558594 150.890625 L 285 150.890625 L 285 224.390625 L 177.558594 224.390625 Z M 177.558594 150.890625 " clip-rule="nonzero"/></clipPath><clipPath id="adb10344e0"><path d="M 146 161 L 197.320312 161 L 197.320312 224.390625 L 146 224.390625 Z M 146 161 " clip-rule="nonzero"/></clipPath><clipPath id="7ba38fd7c0"><path d="M 33.070312 150.890625 L 140 150.890625 L 140 224.390625 L 33.070312 224.390625 Z M 33.070312 150.890625 " clip-rule="nonzero"/></clipPath><clipPath id="7ac013bcbf"><path d="M 121.308594 150.890625 L 261.328125 150.890625 L 261.328125 201.226562 L 121.308594 201.226562 Z M 121.308594 150.890625 " clip-rule="nonzero"/></clipPath><clipPath id="5695ac4764"><path d="M 0.308594 0.890625 L 140.328125 0.890625 L 140.328125 51.226562 L 0.308594 51.226562 Z M 0.308594 0.890625 " clip-rule="nonzero"/></clipPath><clipPath id="a1bb556952"><rect x="0" width="141" y="0" height="52"/></clipPath><clipPath id="09eeeb437b"><path d="M 174.476562 190.097656 L 226.242188 190.097656 L 226.242188 212.359375 L 174.476562 212.359375 Z M 174.476562 190.097656 " clip-rule="nonzero"/></clipPath><clipPath id="e9b3d5824f"><path d="M 0.476562 0.0976562 L 52.242188 0.0976562 L 52.242188 22.359375 L 0.476562 22.359375 Z M 0.476562 0.0976562 " clip-rule="nonzero"/></clipPath><clipPath id="1d0c4db2b3"><rect x="0" width="53" y="0" height="23"/></clipPath><clipPath id="ebdd15318a"><path d="M 186.527344 178.964844 L 226.242188 178.964844 L 226.242188 201.226562 L 186.527344 201.226562 Z M 186.527344 178.964844 " clip-rule="nonzero"/></clipPath><clipPath id="54e66df207"><path d="M 0.527344 0.964844 L 40.242188 0.964844 L 40.242188 23.226562 L 0.527344 23.226562 Z M 0.527344 0.964844 " clip-rule="nonzero"/></clipPath><clipPath id="638c5fa831"><rect x="0" width="41" y="0" height="24"/></clipPath><clipPath id="448248587f"><path d="M 104.644531 190.097656 L 157.410156 190.097656 L 157.410156 212.359375 L 104.644531 212.359375 Z M 104.644531 190.097656 " clip-rule="nonzero"/></clipPath><clipPath id="fa3250e882"><path d="M 0.644531 0.0976562 L 53.410156 0.0976562 L 53.410156 22.359375 L 0.644531 22.359375 Z M 0.644531 0.0976562 " clip-rule="nonzero"/></clipPath><clipPath id="82ee99b0f9"><rect x="0" width="54" y="0" height="23"/></clipPath><clipPath id="5adf05d46d"><rect x="0" width="111" y="0" height="41"/></clipPath><clipPath id="99a358240d"><rect x="0" width="74" y="0" height="11"/></clipPath></defs><g clip-path="url(#28975f27d4)"><path fill="#000000" d="M 341.457031 186.21875 L 316.875 161.636719 C 316.578125 161.339844 316.21875 161.175781 315.824219 161.175781 L 292.492188 161.175781 C 291.667969 161.175781 290.980469 161.867188 290.980469 162.6875 L 290.980469 210.570312 C 290.980469 211.390625 291.667969 212.082031 292.492188 212.082031 L 299.820312 212.082031 C 300.574219 212.082031 301.230469 212.640625 301.332031 213.429688 C 301.988281 219.375 307.046875 224.011719 313.160156 224.011719 C 319.273438 224.011719 324.335938 219.375 324.992188 213.429688 C 325.089844 212.671875 325.714844 212.082031 326.503906 212.082031 L 340.40625 212.082031 C 341.226562 212.082031 341.917969 211.390625 341.917969 210.570312 L 341.917969 187.238281 C 341.882812 186.875 341.71875 186.511719 341.457031 186.21875 Z M 313.128906 217.734375 C 310.039062 217.734375 307.507812 215.234375 307.507812 212.113281 C 307.507812 209.023438 310.007812 206.496094 313.128906 206.496094 C 316.21875 206.496094 318.746094 208.992188 318.746094 212.113281 C 318.746094 215.203125 316.25 217.734375 313.128906 217.734375 Z M 331.039062 185.460938 C 323.019531 185.394531 304.023438 185.296875 298.4375 185.394531 C 297.585938 185.429688 296.894531 184.738281 296.894531 183.882812 L 296.894531 167.648438 C 296.894531 166.828125 297.585938 166.136719 298.40625 166.136719 L 315 166.136719 C 315.394531 166.136719 315.789062 166.304688 316.085938 166.597656 L 332.121094 182.898438 C 333.074219 183.851562 332.386719 185.460938 331.039062 185.460938 Z M 331.039062 185.460938 " fill-opacity="1" fill-rule="nonzero"/></g><g clip-path="url(#c778c0c504)"><path fill="#000000" d="M 282.5 150.890625 L 181.839844 150.890625 C 179.539062 150.890625 177.601562 152.730469 177.570312 155.03125 C 177.570312 156.179688 178.027344 157.234375 178.785156 158.019531 C 179.539062 158.777344 180.589844 159.238281 181.742188 159.238281 L 242.277344 159.238281 C 243.425781 159.238281 244.476562 159.699219 245.234375 160.453125 C 245.988281 161.210938 246.449219 162.261719 246.449219 163.410156 C 246.449219 165.710938 244.574219 167.585938 242.277344 167.585938 L 203.203125 167.585938 C 200.902344 167.585938 198.960938 169.425781 198.929688 171.726562 C 198.929688 172.910156 199.390625 173.960938 200.144531 174.714844 C 200.902344 175.472656 201.953125 175.933594 203.101562 175.933594 L 250.226562 175.933594 C 251.378906 175.933594 252.429688 176.390625 253.1875 177.148438 C 253.941406 177.902344 254.402344 178.957031 254.402344 180.105469 C 254.402344 182.40625 252.527344 184.277344 250.226562 184.277344 L 197.417969 184.277344 C 195.117188 184.277344 193.179688 186.121094 193.144531 188.417969 C 193.144531 189.570312 193.605469 190.621094 194.363281 191.378906 C 195.117188 192.132812 196.167969 192.59375 197.320312 192.59375 L 230.347656 192.59375 C 231.496094 192.59375 232.546875 193.054688 233.304688 193.808594 C 234.058594 194.566406 234.519531 195.617188 234.519531 196.765625 C 234.488281 199.066406 232.546875 200.90625 230.246094 200.90625 L 212.4375 200.90625 C 211.613281 200.90625 210.925781 201.597656 210.925781 202.417969 L 210.925781 210.667969 C 210.925781 211.488281 211.613281 212.179688 212.4375 212.179688 L 224.367188 212.179688 C 225.121094 212.179688 225.777344 212.738281 225.84375 213.527344 C 226.5 219.476562 231.5625 224.109375 237.675781 224.109375 C 243.789062 224.109375 248.847656 219.476562 249.503906 213.527344 C 249.605469 212.769531 250.226562 212.179688 250.984375 212.179688 L 282.5 212.179688 C 283.320312 212.179688 284.011719 211.488281 284.011719 210.667969 L 284.011719 152.402344 C 284.011719 151.582031 283.320312 150.890625 282.5 150.890625 Z M 237.675781 217.734375 C 234.585938 217.734375 232.054688 215.234375 232.054688 212.113281 C 232.054688 209.023438 234.554688 206.496094 237.675781 206.496094 C 240.765625 206.496094 243.292969 208.992188 243.292969 212.113281 C 243.261719 215.203125 240.765625 217.734375 237.675781 217.734375 Z M 237.675781 217.734375 " fill-opacity="1" fill-rule="nonzero"/></g><g clip-path="url(#adb10344e0)"><path fill="#000000" d="M 196.96875 186.21875 L 172.386719 161.636719 C 172.089844 161.339844 171.730469 161.175781 171.335938 161.175781 L 148.003906 161.175781 C 147.179688 161.175781 146.492188 161.867188 146.492188 162.6875 L 146.492188 210.570312 C 146.492188 211.390625 147.179688 212.082031 148.003906 212.082031 L 155.332031 212.082031 C 156.085938 212.082031 156.742188 212.640625 156.84375 213.429688 C 157.5 219.375 162.558594 224.011719 168.671875 224.011719 C 174.785156 224.011719 179.847656 219.375 180.503906 213.429688 C 180.601562 212.671875 181.226562 212.082031 182.015625 212.082031 L 195.917969 212.082031 C 196.738281 212.082031 197.429688 211.390625 197.429688 210.570312 L 197.429688 187.238281 C 197.394531 186.875 197.230469 186.511719 196.96875 186.21875 Z M 168.640625 217.734375 C 165.550781 217.734375 163.019531 215.234375 163.019531 212.113281 C 163.019531 209.023438 165.519531 206.496094 168.640625 206.496094 C 171.730469 206.496094 174.257812 208.992188 174.257812 212.113281 C 174.257812 215.203125 171.761719 217.734375 168.640625 217.734375 Z M 186.550781 185.460938 C 178.53125 185.394531 159.535156 185.296875 153.949219 185.394531 C 153.097656 185.429688 152.40625 184.738281 152.40625 183.882812 L 152.40625 167.648438 C 152.40625 166.828125 153.097656 166.136719 153.917969 166.136719 L 170.511719 166.136719 C 170.90625 166.136719 171.300781 166.304688 171.597656 166.597656 L 187.636719 182.898438 C 188.585938 183.851562 187.898438 185.460938 186.550781 185.460938 Z M 186.550781 185.460938 " fill-opacity="1" fill-rule="nonzero"/></g><g clip-path="url(#7ba38fd7c0)"><path fill="#000000" d="M 138.011719 150.890625 L 37.351562 150.890625 C 35.050781 150.890625 33.113281 152.730469 33.082031 155.03125 C 33.082031 156.179688 33.539062 157.234375 34.296875 158.019531 C 35.050781 158.777344 36.105469 159.238281 37.253906 159.238281 L 97.789062 159.238281 C 98.9375 159.238281 99.988281 159.699219 100.746094 160.453125 C 101.5 161.210938 101.960938 162.261719 101.960938 163.410156 C 101.960938 165.710938 100.085938 167.585938 97.789062 167.585938 L 58.714844 167.585938 C 56.414062 167.585938 54.472656 169.425781 54.441406 171.726562 C 54.441406 172.910156 54.902344 173.960938 55.65625 174.714844 C 56.414062 175.472656 57.464844 175.933594 58.613281 175.933594 L 105.742188 175.933594 C 106.890625 175.933594 107.941406 176.390625 108.699219 177.148438 C 109.453125 177.902344 109.914062 178.957031 109.914062 180.105469 C 109.914062 182.40625 108.039062 184.277344 105.742188 184.277344 L 52.929688 184.277344 C 50.628906 184.277344 48.691406 186.121094 48.65625 188.417969 C 48.65625 189.570312 49.117188 190.621094 49.875 191.378906 C 50.628906 192.132812 51.679688 192.59375 52.832031 192.59375 L 85.859375 192.59375 C 87.007812 192.59375 88.058594 193.054688 88.816406 193.808594 C 89.570312 194.566406 90.03125 195.617188 90.03125 196.765625 C 90 199.066406 88.058594 200.90625 85.757812 200.90625 L 67.949219 200.90625 C 67.125 200.90625 66.4375 201.597656 66.4375 202.417969 L 66.4375 210.667969 C 66.4375 211.488281 67.125 212.179688 67.949219 212.179688 L 79.878906 212.179688 C 80.632812 212.179688 81.289062 212.738281 81.355469 213.527344 C 82.011719 219.476562 87.074219 224.109375 93.1875 224.109375 C 99.300781 224.109375 104.359375 219.476562 105.015625 213.527344 C 105.117188 212.769531 105.742188 212.179688 106.496094 212.179688 L 138.011719 212.179688 C 138.832031 212.179688 139.523438 211.488281 139.523438 210.667969 L 139.523438 152.402344 C 139.523438 151.582031 138.832031 150.890625 138.011719 150.890625 Z M 93.1875 217.734375 C 90.097656 217.734375 87.566406 215.234375 87.566406 212.113281 C 87.566406 209.023438 90.066406 206.496094 93.1875 206.496094 C 96.277344 206.496094 98.804688 208.992188 98.804688 212.113281 C 98.773438 215.203125 96.277344 217.734375 93.1875 217.734375 Z M 93.1875 217.734375 " fill-opacity="1" fill-rule="nonzero"/></g><g clip-path="url(#7ac013bcbf)"><g transform="matrix(1, 0, 0, 1, 121, 150)"><g clip-path="url(#a1bb556952)"><g clip-path="url(#5695ac4764)"><path fill="#000000" d="M 0.308594 0.890625 L 140.3125 0.890625 L 140.3125 51.226562 L 0.308594 51.226562 Z M 0.308594 0.890625 " fill-opacity="1" fill-rule="nonzero"/></g></g></g></g><g clip-path="url(#09eeeb437b)"><g transform="matrix(1, 0, 0, 1, 174, 190)"><g clip-path="url(#1d0c4db2b3)"><g clip-path="url(#e9b3d5824f)"><path fill="#000000" d="M 0.476562 0.0976562 L 52.226562 0.0976562 L 52.226562 22.359375 L 0.476562 22.359375 Z M 0.476562 0.0976562 " fill-opacity="1" fill-rule="nonzero"/></g></g></g></g><g clip-path="url(#ebdd15318a)"><g transform="matrix(1, 0, 0, 1, 186, 178)"><g clip-path="url(#638c5fa831)"><g clip-path="url(#54e66df207)"><path fill="#000000" d="M 0.527344 0.964844 L 40.269531 0.964844 L 40.269531 23.226562 L 0.527344 23.226562 Z M 0.527344 0.964844 " fill-opacity="1" fill-rule="nonzero"/></g></g></g></g><g clip-path="url(#448248587f)"><g transform="matrix(1, 0, 0, 1, 104, 190)"><g clip-path="url(#82ee99b0f9)"><g clip-path="url(#fa3250e882)"><path fill="#000000" d="M 0.644531 0.0976562 L 53.433594 0.0976562 L 53.433594 22.359375 L 0.644531 22.359375 Z M 0.644531 0.0976562 " fill-opacity="1" fill-rule="nonzero"/></g></g></g></g><g transform="matrix(1, 0, 0, 1, 137, 156)"><g clip-path="url(#5adf05d46d)"><g fill="#f2d338" fill-opacity="1"><g transform="translate(0.641495, 29.282601)"><g><path d="M 2.296875 0 L 2.296875 -19.1875 L 6 -19.1875 L 12.828125 -9.234375 L 19.625 -19.1875 L 23.296875 -19.1875 L 23.296875 0 L 18.96875 0 L 18.96875 -11.53125 L 14.3125 -4.734375 L 11.296875 -4.734375 L 6.625 -11.5625 L 6.625 0 Z M 2.296875 0 "/></g></g></g><g fill="#f2d338" fill-opacity="1"><g transform="translate(26.231504, 29.282601)"><g><path d="M 2.296875 0 L 2.296875 -19.1875 L 14.90625 -19.1875 L 14.90625 -15.515625 L 6.625 -15.515625 L 6.625 -11.53125 L 14.171875 -11.53125 L 14.171875 -7.890625 L 6.625 -7.890625 L 6.625 -3.703125 L 15.203125 -3.703125 L 15.203125 0 Z M 2.296875 0 "/></g></g></g><g fill="#f2d338" fill-opacity="1"><g transform="translate(42.83487, 29.282601)"><g><path d="M 2.296875 0 L 2.296875 -19.1875 L 6.65625 -19.1875 L 6.65625 -4.078125 L 15.046875 -4.078125 L 15.046875 0 Z M 2.296875 0 "/></g></g></g><g fill="#f2d338" fill-opacity="1"><g transform="translate(58.616287, 29.282601)"><g><path d="M 2.296875 0 L 2.296875 -19.1875 L 6.65625 -19.1875 L 6.65625 0 Z M 2.296875 0 "/></g></g></g><g fill="#f2d338" fill-opacity="1"><g transform="translate(67.57553, 29.282601)"><g><path d="M 11.40625 0.390625 C 9.40625 0.390625 7.632812 -0.0351562 6.09375 -0.890625 C 4.550781 -1.742188 3.34375 -2.914062 2.46875 -4.40625 C 1.601562 -5.90625 1.171875 -7.632812 1.171875 -9.59375 C 1.171875 -11.550781 1.601562 -13.273438 2.46875 -14.765625 C 3.34375 -16.265625 4.550781 -17.4375 6.09375 -18.28125 C 7.632812 -19.132812 9.40625 -19.5625 11.40625 -19.5625 C 13.414062 -19.5625 15.1875 -19.132812 16.71875 -18.28125 C 18.25 -17.4375 19.453125 -16.265625 20.328125 -14.765625 C 21.210938 -13.273438 21.65625 -11.550781 21.65625 -9.59375 C 21.65625 -7.632812 21.210938 -5.90625 20.328125 -4.40625 C 19.453125 -2.914062 18.25 -1.742188 16.71875 -0.890625 C 15.1875 -0.0351562 13.414062 0.390625 11.40625 0.390625 Z M 5.625 -9.59375 C 5.625 -8.4375 5.867188 -7.421875 6.359375 -6.546875 C 6.847656 -5.671875 7.523438 -4.984375 8.390625 -4.484375 C 9.265625 -3.992188 10.269531 -3.75 11.40625 -3.75 C 12.550781 -3.75 13.554688 -3.992188 14.421875 -4.484375 C 15.296875 -4.984375 15.972656 -5.671875 16.453125 -6.546875 C 16.941406 -7.421875 17.1875 -8.4375 17.1875 -9.59375 C 17.1875 -10.738281 16.941406 -11.75 16.453125 -12.625 C 15.972656 -13.507812 15.296875 -14.195312 14.421875 -14.6875 C 13.554688 -15.1875 12.550781 -15.4375 11.40625 -15.4375 C 10.269531 -15.4375 9.265625 -15.1875 8.390625 -14.6875 C 7.523438 -14.195312 6.847656 -13.507812 6.359375 -12.625 C 5.867188 -11.75 5.625 -10.738281 5.625 -9.59375 Z M 5.625 -9.59375 "/></g></g></g><g fill="#f2d338" fill-opacity="1"><g transform="translate(90.398311, 29.282601)"><g><path d="M 2.296875 0 L 2.296875 -19.1875 L 10.5 -19.1875 C 11.957031 -19.1875 13.222656 -18.921875 14.296875 -18.390625 C 15.378906 -17.859375 16.210938 -17.097656 16.796875 -16.109375 C 17.378906 -15.128906 17.671875 -13.953125 17.671875 -12.578125 C 17.671875 -11.171875 17.351562 -9.957031 16.71875 -8.9375 C 16.082031 -7.925781 15.1875 -7.164062 14.03125 -6.65625 L 18 0 L 12.96875 0 L 9.53125 -5.96875 L 6.65625 -5.96875 L 6.65625 0 Z M 6.609375 -9.640625 L 9.921875 -9.640625 C 10.992188 -9.640625 11.816406 -9.890625 12.390625 -10.390625 C 12.972656 -10.898438 13.265625 -11.617188 13.265625 -12.546875 C 13.265625 -13.484375 12.972656 -14.203125 12.390625 -14.703125 C 11.816406 -15.203125 10.992188 -15.453125 9.921875 -15.453125 L 6.609375 -15.453125 Z M 6.609375 -9.640625 "/></g></g></g></g></g><g transform="matrix(1, 0, 0, 1, 155, 187)"><g clip-path="url(#99a358240d)"><g fill="#f2d338" fill-opacity="1"><g transform="translate(1.118167, 7.591164)"><g><path d="M 1.96875 0.078125 C 1.613281 0.078125 1.304688 0.0195312 1.046875 -0.09375 C 0.796875 -0.207031 0.601562 -0.367188 0.46875 -0.578125 C 0.332031 -0.796875 0.265625 -1.050781 0.265625 -1.34375 L 1.203125 -1.34375 C 1.203125 -1.132812 1.269531 -0.972656 1.40625 -0.859375 C 1.539062 -0.753906 1.726562 -0.703125 1.96875 -0.703125 C 2.164062 -0.703125 2.320312 -0.738281 2.4375 -0.8125 C 2.550781 -0.894531 2.609375 -1.003906 2.609375 -1.140625 C 2.609375 -1.296875 2.535156 -1.414062 2.390625 -1.5 C 2.253906 -1.59375 2.039062 -1.671875 1.75 -1.734375 C 1.257812 -1.835938 0.894531 -1.992188 0.65625 -2.203125 C 0.414062 -2.421875 0.296875 -2.703125 0.296875 -3.046875 C 0.296875 -3.429688 0.4375 -3.734375 0.71875 -3.953125 C 1 -4.171875 1.378906 -4.28125 1.859375 -4.28125 C 2.191406 -4.28125 2.476562 -4.222656 2.71875 -4.109375 C 2.96875 -3.992188 3.160156 -3.832031 3.296875 -3.625 C 3.429688 -3.425781 3.5 -3.179688 3.5 -2.890625 L 2.578125 -2.890625 C 2.578125 -3.085938 2.515625 -3.238281 2.390625 -3.34375 C 2.265625 -3.445312 2.09375 -3.5 1.875 -3.5 C 1.675781 -3.5 1.519531 -3.457031 1.40625 -3.375 C 1.289062 -3.300781 1.234375 -3.195312 1.234375 -3.0625 C 1.234375 -2.9375 1.296875 -2.828125 1.421875 -2.734375 C 1.546875 -2.648438 1.769531 -2.566406 2.09375 -2.484375 C 2.613281 -2.359375 2.988281 -2.191406 3.21875 -1.984375 C 3.457031 -1.785156 3.578125 -1.519531 3.578125 -1.1875 C 3.578125 -0.789062 3.429688 -0.476562 3.140625 -0.25 C 2.859375 -0.03125 2.46875 0.078125 1.96875 0.078125 Z M 1.96875 0.078125 "/></g></g></g><g fill="#f2d338" fill-opacity="1"><g transform="translate(4.964198, 7.591164)"><g><path d="M 0.5 0 L 0.5 -4.203125 L 3.265625 -4.203125 L 3.265625 -3.390625 L 1.453125 -3.390625 L 1.453125 -2.53125 L 3.109375 -2.53125 L 3.109375 -1.734375 L 1.453125 -1.734375 L 1.453125 -0.8125 L 3.328125 -0.8125 L 3.328125 0 Z M 0.5 0 "/></g></g></g><g fill="#f2d338" fill-opacity="1"><g transform="translate(8.600229, 7.591164)"><g><path d="M 0.5 0 L 0.5 -4.203125 L 2.296875 -4.203125 C 2.617188 -4.203125 2.894531 -4.144531 3.125 -4.03125 C 3.363281 -3.914062 3.546875 -3.75 3.671875 -3.53125 C 3.804688 -3.3125 3.875 -3.050781 3.875 -2.75 C 3.875 -2.445312 3.800781 -2.179688 3.65625 -1.953125 C 3.519531 -1.734375 3.328125 -1.566406 3.078125 -1.453125 L 3.9375 0 L 2.84375 0 L 2.09375 -1.3125 L 1.453125 -1.3125 L 1.453125 0 Z M 1.453125 -2.109375 L 2.171875 -2.109375 C 2.410156 -2.109375 2.59375 -2.160156 2.71875 -2.265625 C 2.84375 -2.378906 2.90625 -2.539062 2.90625 -2.75 C 2.90625 -2.945312 2.84375 -3.101562 2.71875 -3.21875 C 2.59375 -3.332031 2.410156 -3.390625 2.171875 -3.390625 L 1.453125 -3.390625 Z M 1.453125 -2.109375 "/></g></g></g><g fill="#f2d338" fill-opacity="1"><g transform="translate(12.824267, 7.591164)"><g><path d="M 1.671875 0 L 0.046875 -4.203125 L 1.078125 -4.203125 L 1.640625 -2.703125 L 2.140625 -1.375 L 3.203125 -4.203125 L 4.21875 -4.203125 L 2.609375 0 Z M 1.671875 0 "/></g></g></g><g fill="#f2d338" fill-opacity="1"><g transform="translate(17.096309, 7.591164)"><g><path d="M 0.5 0 L 0.5 -4.203125 L 1.453125 -4.203125 L 1.453125 0 Z M 0.5 0 "/></g></g></g><g fill="#f2d338" fill-opacity="1"><g transform="translate(19.058326, 7.591164)"><g><path d="M 1.90625 1.640625 L 1.90625 1.09375 L 2.328125 1.09375 C 2.484375 1.09375 2.5625 1.03125 2.5625 0.90625 C 2.5625 0.78125 2.484375 0.71875 2.328125 0.71875 L 2.09375 0.71875 L 1.984375 0.578125 L 2.140625 0.078125 C 1.773438 0.0234375 1.445312 -0.09375 1.15625 -0.28125 C 0.875 -0.46875 0.65625 -0.71875 0.5 -1.03125 C 0.34375 -1.34375 0.265625 -1.695312 0.265625 -2.09375 C 0.265625 -2.519531 0.351562 -2.894531 0.53125 -3.21875 C 0.71875 -3.550781 0.972656 -3.8125 1.296875 -4 C 1.617188 -4.1875 1.992188 -4.28125 2.421875 -4.28125 C 2.773438 -4.28125 3.097656 -4.210938 3.390625 -4.078125 C 3.691406 -3.941406 3.941406 -3.75 4.140625 -3.5 C 4.347656 -3.25 4.492188 -2.957031 4.578125 -2.625 L 3.59375 -2.625 C 3.507812 -2.851562 3.363281 -3.035156 3.15625 -3.171875 C 2.957031 -3.304688 2.722656 -3.375 2.453125 -3.375 C 2.210938 -3.375 2 -3.316406 1.8125 -3.203125 C 1.632812 -3.097656 1.492188 -2.953125 1.390625 -2.765625 C 1.285156 -2.578125 1.234375 -2.351562 1.234375 -2.09375 C 1.234375 -1.84375 1.285156 -1.617188 1.390625 -1.421875 C 1.492188 -1.234375 1.632812 -1.085938 1.8125 -0.984375 C 2 -0.878906 2.210938 -0.828125 2.453125 -0.828125 C 2.722656 -0.828125 2.960938 -0.894531 3.171875 -1.03125 C 3.378906 -1.175781 3.53125 -1.367188 3.625 -1.609375 L 4.609375 -1.609375 C 4.535156 -1.296875 4.410156 -1.015625 4.234375 -0.765625 C 4.054688 -0.523438 3.832031 -0.332031 3.5625 -0.1875 C 3.300781 -0.0390625 3.003906 0.046875 2.671875 0.078125 L 2.59375 0.296875 C 2.78125 0.328125 2.925781 0.398438 3.03125 0.515625 C 3.132812 0.640625 3.1875 0.785156 3.1875 0.953125 C 3.1875 1.160156 3.117188 1.328125 2.984375 1.453125 C 2.847656 1.578125 2.65625 1.640625 2.40625 1.640625 Z M 1.90625 1.640625 "/></g></g></g><g fill="#f2d338" fill-opacity="1"><g transform="translate(23.900369, 7.591164)"><g><path d="M 2.5 0.078125 C 2.0625 0.078125 1.671875 -0.0078125 1.328125 -0.1875 C 0.992188 -0.375 0.734375 -0.628906 0.546875 -0.953125 C 0.359375 -1.285156 0.265625 -1.664062 0.265625 -2.09375 C 0.265625 -2.519531 0.359375 -2.894531 0.546875 -3.21875 C 0.734375 -3.550781 0.992188 -3.8125 1.328125 -4 C 1.671875 -4.1875 2.0625 -4.28125 2.5 -4.28125 C 2.9375 -4.28125 3.320312 -4.1875 3.65625 -4 C 3.988281 -3.8125 4.25 -3.550781 4.4375 -3.21875 C 4.632812 -2.894531 4.734375 -2.519531 4.734375 -2.09375 C 4.734375 -1.664062 4.632812 -1.285156 4.4375 -0.953125 C 4.25 -0.628906 3.988281 -0.375 3.65625 -0.1875 C 3.320312 -0.0078125 2.9375 0.078125 2.5 0.078125 Z M 1.234375 -2.09375 C 1.234375 -1.84375 1.285156 -1.617188 1.390625 -1.421875 C 1.492188 -1.234375 1.640625 -1.085938 1.828125 -0.984375 C 2.023438 -0.878906 2.25 -0.828125 2.5 -0.828125 C 2.75 -0.828125 2.96875 -0.878906 3.15625 -0.984375 C 3.34375 -1.085938 3.488281 -1.234375 3.59375 -1.421875 C 3.707031 -1.617188 3.765625 -1.84375 3.765625 -2.09375 C 3.765625 -2.351562 3.707031 -2.578125 3.59375 -2.765625 C 3.488281 -2.953125 3.34375 -3.097656 3.15625 -3.203125 C 2.96875 -3.316406 2.75 -3.375 2.5 -3.375 C 2.25 -3.375 2.023438 -3.316406 1.828125 -3.203125 C 1.640625 -3.097656 1.492188 -2.953125 1.390625 -2.765625 C 1.285156 -2.578125 1.234375 -2.351562 1.234375 -2.09375 Z M 1.234375 -2.09375 "/></g></g></g><g fill="#f2d338" fill-opacity="1"><g transform="translate(28.89841, 7.591164)"><g/></g></g><g fill="#f2d338" fill-opacity="1"><g transform="translate(30.308424, 7.591164)"><g><path d="M 0.5 0 L 0.5 -4.203125 L 2.171875 -4.203125 C 2.609375 -4.203125 2.992188 -4.113281 3.328125 -3.9375 C 3.660156 -3.757812 3.914062 -3.507812 4.09375 -3.1875 C 4.28125 -2.875 4.375 -2.507812 4.375 -2.09375 C 4.375 -1.675781 4.28125 -1.3125 4.09375 -1 C 3.914062 -0.6875 3.660156 -0.441406 3.328125 -0.265625 C 2.992188 -0.0859375 2.609375 0 2.171875 0 Z M 1.453125 -0.875 L 2.140625 -0.875 C 2.390625 -0.875 2.609375 -0.925781 2.796875 -1.03125 C 2.984375 -1.132812 3.128906 -1.273438 3.234375 -1.453125 C 3.347656 -1.640625 3.40625 -1.851562 3.40625 -2.09375 C 3.40625 -2.34375 3.347656 -2.554688 3.234375 -2.734375 C 3.128906 -2.921875 2.984375 -3.066406 2.796875 -3.171875 C 2.609375 -3.273438 2.390625 -3.328125 2.140625 -3.328125 L 1.453125 -3.328125 Z M 1.453125 -0.875 "/></g></g></g><g fill="#f2d338" fill-opacity="1"><g transform="translate(34.940468, 7.591164)"><g><path d="M 0.5 0 L 0.5 -4.203125 L 3.265625 -4.203125 L 3.265625 -3.390625 L 1.453125 -3.390625 L 1.453125 -2.53125 L 3.109375 -2.53125 L 3.109375 -1.734375 L 1.453125 -1.734375 L 1.453125 -0.8125 L 3.328125 -0.8125 L 3.328125 0 Z M 0.5 0 "/></g></g></g><g fill="#f2d338" fill-opacity="1"><g transform="translate(38.576499, 7.591164)"><g/></g></g><g fill="#f2d338" fill-opacity="1"><g transform="translate(39.986513, 7.591164)"><g><path d="M 0.5 0 L 0.5 -4.203125 L 3.265625 -4.203125 L 3.265625 -3.390625 L 1.453125 -3.390625 L 1.453125 -2.53125 L 3.109375 -2.53125 L 3.109375 -1.734375 L 1.453125 -1.734375 L 1.453125 -0.8125 L 3.328125 -0.8125 L 3.328125 0 Z M 0.5 0 "/></g></g></g><g fill="#f2d338" fill-opacity="1"><g transform="translate(43.622545, 7.591164)"><g><path d="M 0.5 0 L 0.5 -4.203125 L 1.3125 -4.203125 L 3.171875 -1.640625 L 3.171875 -4.203125 L 4.109375 -4.203125 L 4.109375 0 L 3.3125 0 L 1.453125 -2.578125 L 1.453125 0 Z M 0.5 0 "/></g></g></g><g fill="#f2d338" fill-opacity="1"><g transform="translate(48.242587, 7.591164)"><g><path d="M 1.515625 0 L 1.515625 -3.3125 L 0.1875 -3.3125 L 0.1875 -4.203125 L 3.796875 -4.203125 L 3.796875 -3.3125 L 2.46875 -3.3125 L 2.46875 0 Z M 1.515625 0 "/></g></g></g><g fill="#f2d338" fill-opacity="1"><g transform="translate(52.220622, 7.591164)"><g><path d="M 0.5 0 L 0.5 -4.203125 L 2.296875 -4.203125 C 2.617188 -4.203125 2.894531 -4.144531 3.125 -4.03125 C 3.363281 -3.914062 3.546875 -3.75 3.671875 -3.53125 C 3.804688 -3.3125 3.875 -3.050781 3.875 -2.75 C 3.875 -2.445312 3.800781 -2.179688 3.65625 -1.953125 C 3.519531 -1.734375 3.328125 -1.566406 3.078125 -1.453125 L 3.9375 0 L 2.84375 0 L 2.09375 -1.3125 L 1.453125 -1.3125 L 1.453125 0 Z M 1.453125 -2.109375 L 2.171875 -2.109375 C 2.410156 -2.109375 2.59375 -2.160156 2.71875 -2.265625 C 2.84375 -2.378906 2.90625 -2.539062 2.90625 -2.75 C 2.90625 -2.945312 2.84375 -3.101562 2.71875 -3.21875 C 2.59375 -3.332031 2.410156 -3.390625 2.171875 -3.390625 L 1.453125 -3.390625 Z M 1.453125 -2.109375 "/></g></g></g><g fill="#f2d338" fill-opacity="1"><g transform="translate(56.44466, 7.591164)"><g><path d="M 0.5 0 L 0.5 -4.203125 L 3.265625 -4.203125 L 3.265625 -3.390625 L 1.453125 -3.390625 L 1.453125 -2.53125 L 3.109375 -2.53125 L 3.109375 -1.734375 L 1.453125 -1.734375 L 1.453125 -0.8125 L 3.328125 -0.8125 L 3.328125 0 Z M 0.5 0 "/></g></g></g><g fill="#f2d338" fill-opacity="1"><g transform="translate(60.080691, 7.591164)"><g><path d="M 2.453125 0.078125 C 2.023438 0.078125 1.644531 -0.0078125 1.3125 -0.1875 C 0.988281 -0.375 0.734375 -0.628906 0.546875 -0.953125 C 0.359375 -1.285156 0.265625 -1.664062 0.265625 -2.09375 C 0.265625 -2.519531 0.351562 -2.894531 0.53125 -3.21875 C 0.71875 -3.550781 0.976562 -3.8125 1.3125 -4 C 1.644531 -4.1875 2.019531 -4.28125 2.4375 -4.28125 C 2.78125 -4.28125 3.09375 -4.21875 3.375 -4.09375 C 3.664062 -3.976562 3.910156 -3.8125 4.109375 -3.59375 C 4.316406 -3.375 4.460938 -3.117188 4.546875 -2.828125 L 3.515625 -2.828125 C 3.421875 -3.015625 3.28125 -3.15625 3.09375 -3.25 C 2.90625 -3.351562 2.691406 -3.40625 2.453125 -3.40625 C 2.210938 -3.40625 2 -3.347656 1.8125 -3.234375 C 1.625 -3.128906 1.476562 -2.976562 1.375 -2.78125 C 1.269531 -2.582031 1.21875 -2.351562 1.21875 -2.09375 C 1.21875 -1.84375 1.269531 -1.617188 1.375 -1.421875 C 1.476562 -1.234375 1.625 -1.082031 1.8125 -0.96875 C 2 -0.851562 2.21875 -0.796875 2.46875 -0.796875 C 2.78125 -0.796875 3.035156 -0.875 3.234375 -1.03125 C 3.441406 -1.1875 3.578125 -1.390625 3.640625 -1.640625 L 2.28125 -1.640625 L 2.28125 -2.375 L 4.640625 -2.375 C 4.671875 -2.019531 4.632812 -1.691406 4.53125 -1.390625 C 4.4375 -1.085938 4.289062 -0.828125 4.09375 -0.609375 C 3.90625 -0.390625 3.671875 -0.21875 3.390625 -0.09375 C 3.117188 0.0195312 2.804688 0.078125 2.453125 0.078125 Z M 2.453125 0.078125 "/></g></g></g><g fill="#f2d338" fill-opacity="1"><g transform="translate(64.976735, 7.591164)"><g><path d="M 0.046875 0 L 1.71875 -4.203125 L 2.65625 -4.203125 L 4.328125 0 L 3.3125 0 L 3.03125 -0.71875 L 1.359375 -0.71875 L 1.078125 0 Z M 1.609375 -1.46875 L 2.78125 -1.46875 L 2.1875 -3.015625 Z M 1.609375 -1.46875 "/></g></g></g><g fill="#f2d338" fill-opacity="1"><g transform="translate(69.356771, 7.591164)"><g><path d="M 1.96875 0.078125 C 1.613281 0.078125 1.304688 0.0195312 1.046875 -0.09375 C 0.796875 -0.207031 0.601562 -0.367188 0.46875 -0.578125 C 0.332031 -0.796875 0.265625 -1.050781 0.265625 -1.34375 L 1.203125 -1.34375 C 1.203125 -1.132812 1.269531 -0.972656 1.40625 -0.859375 C 1.539062 -0.753906 1.726562 -0.703125 1.96875 -0.703125 C 2.164062 -0.703125 2.320312 -0.738281 2.4375 -0.8125 C 2.550781 -0.894531 2.609375 -1.003906 2.609375 -1.140625 C 2.609375 -1.296875 2.535156 -1.414062 2.390625 -1.5 C 2.253906 -1.59375 2.039062 -1.671875 1.75 -1.734375 C 1.257812 -1.835938 0.894531 -1.992188 0.65625 -2.203125 C 0.414062 -2.421875 0.296875 -2.703125 0.296875 -3.046875 C 0.296875 -3.429688 0.4375 -3.734375 0.71875 -3.953125 C 1 -4.171875 1.378906 -4.28125 1.859375 -4.28125 C 2.191406 -4.28125 2.476562 -4.222656 2.71875 -4.109375 C 2.96875 -3.992188 3.160156 -3.832031 3.296875 -3.625 C 3.429688 -3.425781 3.5 -3.179688 3.5 -2.890625 L 2.578125 -2.890625 C 2.578125 -3.085938 2.515625 -3.238281 2.390625 -3.34375 C 2.265625 -3.445312 2.09375 -3.5 1.875 -3.5 C 1.675781 -3.5 1.519531 -3.457031 1.40625 -3.375 C 1.289062 -3.300781 1.234375 -3.195312 1.234375 -3.0625 C 1.234375 -2.9375 1.296875 -2.828125 1.421875 -2.734375 C 1.546875 -2.648438 1.769531 -2.566406 2.09375 -2.484375 C 2.613281 -2.359375 2.988281 -2.191406 3.21875 -1.984375 C 3.457031 -1.785156 3.578125 -1.519531 3.578125 -1.1875 C 3.578125 -0.789062 3.429688 -0.476562 3.140625 -0.25 C 2.859375 -0.03125 2.46875 0.078125 1.96875 0.078125 Z M 1.96875 0.078125 "/></g></g></g></g></g></svg>